<svg xmlns="http://www.w3.org/2000/svg" viewBox="0 0 178.95 76.84"><title>Eastwoods b&amp;amp;w</title><g id="Layer_2" data-name="Layer 2"><g id="Layer_1-2" data-name="Layer 1"><path d="M17.75,42.79H0V0H17.58V5.66H6.4v12.5H16v5.55H6.4V37.13H17.75Z"/><path d="M40.1,42.79h-6v-.95l-4.27.65a30.58,30.58,0,0,1-4.23.41q-3.42,0-3.42-3.36V29.59q0-3.42,3.52-3.42h8.45V19.82h-6v3.94H22.52V18.59q0-3.4,3.52-3.41H36.63q3.46,0,3.47,3.41Zm-5.94-5V30.41h-6V38Z"/><path d="M62.45,39.38q0,3.4-3.47,3.41H48.45c-2.32,0-3.47-1.14-3.47-3.41V33.44h6v4.65h5.5V33.71l-9.6-5.66a3.38,3.38,0,0,1-1.88-3V18.59q0-3.4,3.52-3.41H58.92c2.32,0,3.47,1.14,3.47,3.41v5.55H56.46V19.88H51v4l9.58,5.61a3.39,3.39,0,0,1,1.91,3.06Z"/><path d="M79.25,42.79H72.31q-3.48,0-3.48-3.41V20.51h-3V15.18h3V7.68h6.24v7.5h4v5.33h-4v17h4.18Z"/><path d="M110.54,15.18l-5.93,27.67H99.14l-3-15.29-3,15.29H87.77L81.83,15.18h6l3,17.63,3-17.63h4.76l3,17.63,3-17.63Z"/><path d="M132.35,39.38q0,3.4-3.47,3.41H117.66q-3.52,0-3.52-3.41V18.59q0-3.4,3.52-3.41h11.22q3.47,0,3.47,3.41Zm-6.13-1.78V20.4h-5.93V37.6Z"/><path d="M155.57,39.38c0,2.27-1.15,3.41-3.47,3.41H140.89q-3.52,0-3.53-3.41V18.59q0-3.4,3.53-3.41H152.1c2.32,0,3.47,1.14,3.47,3.41Zm-6.12-1.78V20.4h-5.93V37.6Z"/><path d="M179,42.79h-6.23v-.95c-4.23.74-6.6,1.12-7.11,1.12a4.89,4.89,0,0,1-3.69-1.38,5.15,5.15,0,0,1-1.34-3.76V20.73c0-2.25.8-3.8,2.4-4.68a11.14,11.14,0,0,1,5.31-1c.53,0,1.29,0,2.3,0s1.71.06,2.13.06V0H179Zm-6.23-5.38v-17h-3.86a1.83,1.83,0,0,0-2.07,2.08v13.2a1.76,1.76,0,0,0,2,2C169.06,37.71,170.39,37.61,172.72,37.41Z"/><path d="M8.88,75.26a1.53,1.53,0,0,1-.45,1.14,1.62,1.62,0,0,1-1.15.44H1.57A1.54,1.54,0,0,1,.44,76.4,1.56,1.56,0,0,1,0,75.26v-19a1.58,1.58,0,0,1,.44-1.14,1.53,1.53,0,0,1,1.13-.43H7.28a1.61,1.61,0,0,1,1.15.43,1.54,1.54,0,0,1,.45,1.14V61.4h-2v-5H2V75.09H6.9V69.64h2Z"/><path d="M27,75.26a1.52,1.52,0,0,1-.44,1.14,1.58,1.58,0,0,1-1.14.44h-6.2a1.51,1.51,0,0,1-1.58-1.58v-19a1.58,1.58,0,0,1,.44-1.14,1.55,1.55,0,0,1,1.14-.43h6.2a1.57,1.57,0,0,1,1.14.43A1.54,1.54,0,0,1,27,56.25Zm-2-.17V56.42H19.65V75.09Z"/><path d="M45.08,76.84H43.72L37.8,60.54v16.3H36V54.68h1.47l5.81,16v-16h1.85Z"/><path d="M62.63,75.26a1.56,1.56,0,0,1-.44,1.14,1.5,1.5,0,0,1-1.12.44H55.49a1.58,1.58,0,0,1-1.14-.44,1.53,1.53,0,0,1-.45-1.14V69.64h2v5.45h4.79V69.81l-6.12-7.39a2.6,2.6,0,0,1-.64-1.68V56.25a1.54,1.54,0,0,1,.45-1.14,1.57,1.57,0,0,1,1.14-.43h5.58a1.49,1.49,0,0,1,1.12.43,1.58,1.58,0,0,1,.44,1.14V61.4h-2v-5H55.87v4.67L62,68.48a2.56,2.56,0,0,1,.61,1.66Z"/><path d="M80.66,75.26a1.52,1.52,0,0,1-.44,1.14,1.58,1.58,0,0,1-1.14.44h-6a1.51,1.51,0,0,1-1.58-1.58V54.68h2V75.09H78.7V54.68h2Z"/><path d="M96.65,76.84H89.57V54.68h2V75.09h5.11Z"/><path d="M112.34,56.42h-3.43V76.84h-2V56.42h-3.45V54.68h8.85Z"/><path d="M128.94,76.84h-2l-.78-4.93h-4.4L121,76.84h-1.9v-.06l4-22.16H125Zm-3-6.67-1.94-12-2,12Z"/><path d="M146.1,76.84h-1.35l-5.92-16.3v16.3H137V54.68h1.47l5.81,16v-16h1.85Z"/><path d="M162.64,56.42h-3.42V76.84h-2V56.42h-3.46V54.68h8.85Z"/><path d="M179,75.26a1.55,1.55,0,0,1-.43,1.14,1.51,1.51,0,0,1-1.12.44h-5.58a1.54,1.54,0,0,1-1.14-.44,1.53,1.53,0,0,1-.45-1.14V69.64h2v5.45H177V69.81l-6.11-7.39a2.54,2.54,0,0,1-.64-1.68V56.25a1.51,1.51,0,0,1,1.59-1.57h5.58a1.51,1.51,0,0,1,1.12.43,1.57,1.57,0,0,1,.43,1.14V61.4h-2v-5H172.2v4.67l6.14,7.39a2.51,2.51,0,0,1,.61,1.66Z"/></g></g></svg>